Coordinates
version=1
nRows=24
nColumns=38
inDegrees=no

Units are S.I. units (second, meters, Newtons, ...)
If the header above contains a line with 'inDegrees', this indicates whether rotational values are in degrees (yes) or radians (no).

endheader
time	pelvis_tilt	pelvis_list	pelvis_rotation	pelvis_tx	pelvis_ty	pelvis_tz	hip_flexion_r	hip_adduction_r	hip_rotation_r	knee_angle_r	ankle_angle_r	subtalar_angle_r	mtp_angle_r	hip_flexion_l	hip_adduction_l	hip_rotation_l	knee_angle_l	ankle_angle_l	subtalar_angle_l	mtp_angle_l	lumbar_extension	lumbar_bending	lumbar_rotation	arm_flex_r	arm_add_r	arm_rot_r	elbow_flex_r	pro_sup_r	wrist_flex_r	wrist_dev_r	arm_flex_l	arm_add_l	arm_rot_l	elbow_flex_l	pro_sup_l	wrist_flex_l	wrist_dev_l
1.05833	-0.0634105	0.0680875	-0.0116685	0.866303	0.958449	-0.300369	0.761241	0.0329515	0.177749	-1.75897	0.0700915	-0.0285802	0.00200916	0.0609334	0.225976	0.186155	-0.643277	0.387326	-0.0299809	-0.0350909	-0.192077	-0.0289949	-0.230971	-0.754859	-0.329398	-0.127617	1.37632	1.93063	-0.0211789	-0.00609321	-0.332397	-0.276004	-0.00758597	2.1016	2.02783	0.0469961	-0.0246415
1.06667	-0.0707553	0.0526334	-0.0125991	0.868902	0.964188	-0.299923	0.775937	0.0487614	0.168441	-1.69756	0.0827553	-0.0285802	0.00200916	0.0141689	0.203537	0.193966	-0.589774	0.334808	-0.0299809	-0.0350909	-0.174402	-0.00881071	-0.243018	-0.781732	-0.335837	-0.132955	1.39966	1.92092	-0.0211789	-0.00609321	-0.333816	-0.275708	0.0015515	2.12089	2.03605	0.0469961	-0.0246415
1.075	-0.0782264	0.0370029	-0.0142272	0.871737	0.970183	-0.299281	0.786558	0.065364	0.159644	-1.63	0.0942378	-0.0285802	0.00200916	-0.0305304	0.179955	0.197173	-0.536266	0.271699	-0.0299809	-0.0350909	-0.156364	0.0111065	-0.254138	-0.807544	-0.341142	-0.138529	1.4223	1.91104	-0.0211789	-0.00609321	-0.337759	-0.276118	0.0107608	2.13906	2.04757	0.0469961	-0.0246415
1.08333	-0.0856911	0.0215161	-0.016945	0.874742	0.976313	-0.298444	0.793175	0.0826169	0.152233	-1.55657	0.104577	-0.0285802	0.00200916	-0.0725509	0.155871	0.195443	-0.48414	0.199737	-0.0299809	-0.0350909	-0.138266	0.0304431	-0.263833	-0.832097	-0.345278	-0.144536	1.44371	1.90166	-0.0211789	-0.00609321	-0.343645	-0.277064	0.0201173	2.15592	2.06182	0.0469961	-0.0246415
1.09167	-0.0931173	0.00665573	-0.0209453	0.877844	0.982448	-0.297433	0.796001	0.100078	0.146976	-1.47758	0.113836	-0.0285802	0.00200916	-0.111325	0.132159	0.189022	-0.434756	0.121344	-0.0299809	-0.0350909	-0.120294	0.0487475	-0.27183	-0.855223	-0.348305	-0.151012	1.46358	1.89341	-0.0211789	-0.00609321	-0.350966	-0.278377	0.0296781	2.17143	2.07782	0.0469961	-0.0246415
1.1	-0.10056	-0.00696027	-0.0262011	0.880964	0.988456	-0.296282	0.795364	0.117034	0.144474	-1.39351	0.12212	-0.0285802	0.00200916	-0.146369	0.109852	0.178706	-0.389442	0.0394585	-0.0299809	-0.0350909	-0.102569	0.0654435	-0.278097	-0.876748	-0.350351	-0.157849	1.48179	1.88688	-0.0211789	-0.00609321	-0.359299	-0.27991	0.0394665	2.18563	2.09431	0.0469961	-0.0246415
1.10833	-0.108085	-0.018647	-0.0324743	0.884022	0.994206	-0.295047	0.791673	0.132584	0.145117	-1.30503	0.129606	-0.0285802	0.00200916	-0.177323	0.090035	0.165709	-0.349455	-0.0427192	-0.0299809	-0.0350909	-0.0851955	0.0798795	-0.282809	-0.896482	-0.351566	-0.164838	1.49835	1.88251	-0.0211789	-0.00609321	-0.368297	-0.281548	0.0494676	2.19864	2.10993	0.0469961	-0.0246415
1.11667	-0.115681	-0.0277282	-0.0393701	0.886945	0.999576	-0.29379	0.785388	0.145753	0.149043	-1.21307	0.136566	-0.0285802	0.00200916	-0.203976	0.0737098	0.151454	-0.315943	-0.122037	-0.0299809	-0.0350909	-0.0683082	0.0914091	-0.286286	-0.914216	-0.352092	-0.171715	1.51332	1.88056	-0.0211789	-0.00609321	-0.377668	-0.283202	0.0596307	2.21059	2.12335	0.0469961	-0.0246415
1.125	-0.123237	-0.0336295	-0.0464057	0.889672	1.00446	-0.292585	0.776987	0.155624	0.156126	-1.11885	0.143383	-0.0285802	0.00200916	-0.226292	0.0616821	0.137338	-0.289898	-0.195675	-0.0299809	-0.0350909	-0.0521214	0.0994754	-0.288904	-0.929731	-0.352035	-0.178204	1.52677	1.88093	-0.0211789	-0.00609321	-0.387155	-0.284812	0.0698738	2.2216	2.13343	0.0469961	-0.0246415
1.13333	-0.130528	-0.0359652	-0.0530863	0.892157	1.00876	-0.291506	0.766926	0.16148	0.166	-1.02391	0.150521	-0.0285802	0.00200916	-0.244401	0.054468	0.124518	-0.272133	-0.261359	-0.0299809	-0.0350909	-0.0369594	0.103697	-0.291016	-0.942805	-0.351445	-0.184053	1.53877	1.88328	-0.0211789	-0.00609321	-0.396519	-0.286325	0.0800861	2.23173	2.13934	0.0469961	-0.0246415
1.14167	-0.137237	-0.0346048	-0.0589814	0.894368	1.01242	-0.29061	0.755585	0.16292	0.17811	-0.93	0.158457	-0.0285802	0.00200916	-0.258596	0.0522358	0.113779	-0.263266	-0.317478	-0.0299809	-0.0350909	-0.0232825	0.103931	-0.292872	-0.953231	-0.350317	-0.189063	1.54937	1.88708	-0.0211789	-0.00609321	-0.405522	-0.287689	0.0901296	2.24099	2.14078	0.0469961	-0.0246415
1.15	-0.142965	-0.0297011	-0.0637845	0.896287	1.0154	-0.28993	0.743244	0.159914	0.191772	-0.839045	0.16761	-0.0285802	0.00200916	-0.269274	0.0547853	0.105474	-0.263733	-0.363119	-0.0299809	-0.0350909	-0.0116556	0.100314	-0.294585	-0.960826	-0.348595	-0.193101	1.55855	1.89175	-0.0211789	-0.00609321	-0.413921	-0.288842	0.099842	2.24928	2.13797	0.0469961	-0.0246415
1.15833	-0.147272	-0.0216863	-0.0673539	0.897907	1.01773	-0.28948	0.730068	0.15283	0.206234	-0.752986	0.178256	-0.0285802	0.00200916	-0.276847	0.0615607	0.0995287	-0.27383	-0.398027	-0.0299809	-0.0350909	-0.00267985	0.0932636	-0.296109	-0.96545	-0.346191	-0.19611	1.56625	1.89676	-0.0211789	-0.00609321	-0.421484	-0.289703	0.10904	2.25644	2.1316	0.0469961	-0.0246415
1.16667	-0.149744	-0.0112391	-0.0697272	0.899231	1.01942	-0.289248	0.716129	0.142398	0.22073	-0.673639	0.19046	-0.0285802	0.00200916	-0.281638	0.0716876	0.0954557	-0.293767	-0.422533	-0.0299809	-0.0350909	0.00310001	0.0834578	-0.297251	-0.967025	-0.343019	-0.198106	1.57237	1.90169	-0.0211789	-0.00609321	-0.428015	-0.290166	0.117519	2.26223	2.12276	0.0469961	-0.0246415
1.175	-0.150074	0.000777772	-0.0711075	0.900265	1.02053	-0.289204	0.701431	0.129638	0.23451	-0.60254	0.204033	-0.0285802	0.00200916	-0.2838	0.0840261	0.0923907	-0.323694	-0.437447	-0.0299809	-0.0350909	0.00529531	0.0717826	-0.297703	-0.965553	-0.339029	-0.199162	1.57685	1.9062	-0.0211789	-0.00609321	-0.43339	-0.290094	0.125057	2.26641	2.11271	0.0469961	-0.0246415
1.18333	-0.148126	0.0133861	-0.0718224	0.90102	1.0211	-0.289284	0.685958	0.115747	0.246865	-0.540818	0.2185	-0.0285802	0.00200916	-0.283284	0.0972402	0.0891617	-0.363679	-0.443927	-0.0299809	-0.0350909	0.00375667	0.0592593	-0.297095	-0.961135	-0.334241	-0.199391	1.57964	1.91005	-0.0211789	-0.00609321	-0.437587	-0.289323	0.131418	2.26871	2.10273	0.0469961	-0.0246415
1.19167	-0.143975	0.0255766	-0.0722669	0.901514	1.02115	-0.289412	0.66972	0.101981	0.257135	-0.489113	0.233108	-0.0285802	0.00200916	-0.279859	0.109876	0.084402	-0.413656	-0.443314	-0.0299809	-0.0350909	-0.00138034	0.0469582	-0.295049	-0.953973	-0.328769	-0.198927	1.58083	1.91308	-0.0211789	-0.00609321	-0.440705	-0.287673	0.136379	2.26893	2.09392	0.0469961	-0.0246415
1.2	-0.137912	0.0363986	-0.0728392	0.901765	1.02069	-0.289513	0.652801	0.0895307	0.26475	-0.447592	0.246848	-0.0285802	0.00200916	-0.273198	0.120467	0.0767439	-0.473327	-0.436971	-0.0299809	-0.0350909	-0.00970014	0.0359026	-0.29122	-0.944369	-0.322818	-0.197908	1.58058	1.91518	-0.0211789	-0.00609321	-0.44295	-0.284968	0.139754	2.26693	2.08697	0.0469961	-0.0246415
1.20833	-0.130407	0.0450482	-0.0738863	0.901791	1.01971	-0.289521	0.6354	0.0794265	0.269296	-0.416048	0.258503	-0.0285802	0.00200916	-0.262981	0.127659	0.0650628	-0.542084	-0.426156	-0.0299809	-0.0350909	-0.0205646	0.0269768	-0.285332	-0.932698	-0.316674	-0.196464	1.57919	1.91631	-0.0211789	-0.00609321	-0.4446	-0.281072	0.141427	2.26265	2.08221	0.0469961	-0.0246415
1.21667	-0.122039	0.0509347	-0.0756656	0.901611	1.01816	-0.289389	0.617868	0.0724742	0.27061	-0.394085	0.266745	-0.0285802	0.00200916	-0.248996	0.130352	0.0487137	-0.618963	-0.411944	-0.0299809	-0.0350909	-0.0332073	0.0208475	-0.277184	-0.919379	-0.310666	-0.194708	1.57708	1.91645	-0.0211789	-0.00609321	-0.445949	-0.275916	0.141381	2.25611	2.07952	0.0469961	-0.0246415
1.225	-0.113407	0.0537196	-0.0783259	0.901233	1.01597	-0.289093	0.600715	0.0692246	0.268858	-0.38132	0.270279	-0.0285802	0.00200916	-0.23121	0.127831	0.0276951	-0.70267	-0.395209	-0.0299809	-0.0350909	-0.0468483	0.0179097	-0.26665	-0.904831	-0.305131	-0.192735	1.57466	1.9156	-0.0211789	-0.00609321	-0.447251	-0.269524	0.139713	2.2474	2.0785	0.0469961	-0.0246415
1.23333	-0.105058	0.053329	-0.0819056	0.900664	1.0131	-0.288641	0.584584	0.0699712	0.264561	-0.377555	0.268074	-0.0285802	0.00200916	-0.209781	0.119861	0.00270166	-0.791673	-0.376636	-0.0299809	-0.0350909	-0.0608092	0.0182653	-0.253673	-0.889424	-0.300374	-0.190621	1.57236	1.91384	-0.0211789	-0.00609321	-0.448667	-0.262029	0.136635	2.23659	2.07852	0.0469961	-0.0246415
1.24167	-0.0974162	0.0499577	-0.0863406	0.899904	1.00948	-0.288054	0.57019	0.0747694	0.258546	-0.382846	0.25965	-0.0285802	0.00200916	-0.185027	0.106732	-0.0249456	-0.884329	-0.35673	-0.0299809	-0.0350909	-0.0745975	0.0217428	-0.238258	-0.873427	-0.296641	-0.188409	1.57051	1.91128	-0.0211789	-0.00609321	-0.450234	-0.253664	0.132444	2.22378	2.07887	0.0469961	-0.0246415
1.25	-0.0907076	0.0440261	-0.0914857	0.898934	1.00511	-0.287372	0.558235	0.0834454	0.251825	-0.397465	0.245409	-0.0285802	0.00200916	-0.157355	0.0892439	-0.0534919	-0.978999	-0.33583	-0.0299809	-0.0350909	-0.0879423	0.0279122	-0.220475	-0.856959	-0.2941	-0.186091	1.5693	1.90816	-0.0211789	-0.00609321	-0.451868	-0.244741	0.127477	2.20899	2.07884	0.0469961	-0.0246415
